
<svg xmlns="http://www.w3.org/2000/svg" width="90" height="90" viewBox="0 0 2483 2483" fill="none">
    <rect width="2483" height="2483" fill="white"/>
    <path d="M819.569 1193.97L961.504 872.431H1051.07L1193.47 1193.97H1098.85L987.686 916.986H1023.51L912.355 1193.97H819.569ZM897.197 1131.5L920.623 1064.43H1077.72L1101.14 1131.5H897.197Z" fill="#02549D"/>
    <path d="M1372.32 1200.4C1346.6 1200.4 1322.86 1196.26 1301.12 1187.99C1279.38 1179.73 1260.39 1168.09 1244.16 1153.09C1228.24 1137.77 1215.84 1120.01 1206.96 1099.8C1198.08 1079.59 1193.64 1057.39 1193.64 1033.2C1193.64 1009.01 1198.08 986.805 1206.96 966.595C1215.84 946.384 1228.24 928.776 1244.16 913.771C1260.39 898.46 1279.38 886.67 1301.12 878.402C1322.86 870.134 1346.6 866 1372.32 866C1398.35 866 1422.08 870.134 1443.52 878.402C1465.26 886.67 1484.09 898.307 1500.01 913.312C1515.94 928.317 1528.34 946.078 1537.22 966.595C1546.41 986.805 1551 1009.01 1551 1033.2C1551 1057.39 1546.41 1079.74 1537.22 1100.26C1528.34 1120.47 1515.94 1138.08 1500.01 1153.09C1484.09 1168.09 1465.26 1179.73 1443.52 1187.99C1422.08 1196.26 1398.35 1200.4 1372.32 1200.4ZM1477.51 1271.59C1463.73 1271.59 1450.87 1270.06 1438.92 1267C1426.98 1264.24 1415.19 1259.65 1403.55 1253.22C1392.22 1246.79 1380.28 1238.06 1367.73 1227.04C1355.48 1216.01 1341.7 1202.39 1326.39 1186.16L1421.47 1162.27C1429.12 1173.6 1436.01 1182.48 1442.14 1188.91C1448.26 1195.34 1454.23 1199.94 1460.05 1202.69C1466.18 1205.45 1472.61 1206.83 1479.34 1206.83C1497.11 1206.83 1513.34 1199.32 1528.03 1184.32L1567.54 1231.17C1545.18 1258.12 1515.17 1271.59 1477.51 1271.59ZM1372.32 1125.07C1384.57 1125.07 1395.9 1122.92 1406.31 1118.63C1417.03 1114.35 1426.21 1108.22 1433.87 1100.26C1441.83 1091.99 1447.96 1082.19 1452.24 1070.86C1456.84 1059.53 1459.13 1046.98 1459.13 1033.2C1459.13 1019.11 1456.84 1006.56 1452.24 995.533C1447.96 984.203 1441.83 974.556 1433.87 966.595C1426.21 958.327 1417.03 952.049 1406.31 947.762C1395.9 943.475 1384.57 941.331 1372.32 941.331C1360.07 941.331 1348.59 943.475 1337.87 947.762C1327.46 952.049 1318.27 958.327 1310.31 966.595C1302.65 974.556 1296.53 984.203 1291.94 995.533C1287.65 1006.56 1285.5 1019.11 1285.5 1033.2C1285.5 1046.98 1287.65 1059.53 1291.94 1070.86C1296.53 1082.19 1302.65 1091.99 1310.31 1100.26C1318.27 1108.22 1327.46 1114.35 1337.87 1118.63C1348.59 1122.92 1360.07 1125.07 1372.32 1125.07Z" fill="#02549D"/>
    <path d="M1742.41 1200.4C1694.94 1200.4 1657.89 1187.38 1631.25 1161.35C1604.61 1135.32 1591.29 1098.42 1591.29 1050.65V872.431H1682.23V1047.9C1682.23 1075.46 1687.59 1095.21 1698.31 1107.15C1709.34 1119.09 1724.34 1125.07 1743.33 1125.07C1762.31 1125.07 1777.16 1119.09 1787.88 1107.15C1798.6 1095.21 1803.96 1075.46 1803.96 1047.9V872.431H1893.53V1050.65C1893.53 1098.42 1880.21 1135.32 1853.57 1161.35C1826.93 1187.38 1789.87 1200.4 1742.41 1200.4Z" fill="#02549D"/>
    <path d="M1905.24 1193.97L2047.17 872.431H2136.74L2279.14 1193.97H2184.51L2073.35 916.986H2109.18L1998.02 1193.97H1905.24ZM1982.86 1131.5L2006.29 1064.43H2163.38L2186.81 1131.5H1982.86Z" fill="#02549D"/>
    <path d="M1005.02 1447.81L1094.25 1238.23H1184.28L1046.48 1559.76H956.911L819.569 1238.23H917.867L1005.02 1447.81ZM1307.83 1559.76H1216.88V1238.23H1307.83V1559.76ZM1386.32 1290.08C1410.95 1306.78 1445.32 1313.75 1477.27 1314.01V1559.76H1386.32V1290.08ZM1772.56 1409.58V1238.23H1861.67V1559.76H1786.8L1644.86 1388.41V1559.76H1555.75V1295.87C1578.96 1283.02 1600.09 1263.43 1617.21 1238.23H1630.62L1772.56 1409.58ZM2274.92 1559.76H2180.29L2155.22 1497.29H2018.88L1993.8 1559.76H1901.02L2042.95 1238.23H2132.52L2274.92 1559.76ZM2045.79 1430.23H2128.31L2087.05 1327.42L2045.79 1430.23Z" fill="#041F6C"/>
    <path d="M324.042 1214.31C243.347 1223.98 209.725 1294.05 203 1328.97L315.972 1439.95H533.847L784 1325.97C779.965 1301.79 739.882 1258.08 695.5 1241.97C651.118 1225.85 612.771 1222.7 526.5 1254.97C439.253 1287.59 424.91 1202.22 324.042 1214.31Z" fill="#83CFF3"/>
    <path d="M642.785 1258.86C700.032 1258.86 744.862 1280.22 783.995 1325.99C783.998 1326.47 784 1326.96 784 1327.45C784 1487.89 653.939 1617.95 493.5 1617.95C333.48 1617.95 203.682 1488.56 203.005 1328.7C244.843 1363.63 294.755 1392 344.215 1392C465.257 1392 541.917 1258.86 642.785 1258.86Z" fill="#02559B"/>
    <path d="M592 1053.51C592 1111.22 547.9 1158 493.5 1158C439.1 1158 395 1111.22 395 1053.51C395 995.807 493.5 866 493.5 866C493.5 866 592 995.807 592 1053.51Z" fill="#02559B"/>
</svg>