<svg width="2077" height="752" viewBox="0 0 2077 752" fill="none" xmlns="http://www.w3.org/2000/svg">
<path d="M616.569 327.966L758.504 6.43071H848.075L990.469 327.966H895.846L784.686 50.9863H820.515L709.355 327.966H616.569ZM694.197 265.496L717.623 198.433H874.716L898.142 265.496H694.197Z" fill="#02549D"/>
<path d="M1169.32 334.397C1143.6 334.397 1119.86 330.263 1098.12 321.995C1076.38 313.727 1057.39 302.09 1041.16 287.085C1025.24 271.774 1012.84 254.013 1003.96 233.802C995.078 213.591 990.638 191.39 990.638 167.198C990.638 143.007 995.078 120.805 1003.96 100.595C1012.84 80.3838 1025.24 62.7759 1041.16 47.771C1057.39 32.4598 1076.38 20.6701 1098.12 12.4021C1119.86 4.13403 1143.6 0 1169.32 0C1195.35 0 1219.08 4.13403 1240.52 12.4021C1262.26 20.6701 1281.09 32.3067 1297.01 47.3116C1312.94 62.3166 1325.34 80.0776 1334.22 100.595C1343.41 120.805 1348 143.007 1348 167.198C1348 191.39 1343.41 213.744 1334.22 234.261C1325.34 254.472 1312.94 272.08 1297.01 287.085C1281.09 302.09 1262.26 313.727 1240.52 321.995C1219.08 330.263 1195.35 334.397 1169.32 334.397ZM1274.51 405.594C1260.73 405.594 1247.87 404.063 1235.92 401C1223.98 398.244 1212.19 393.651 1200.55 387.22C1189.22 380.79 1177.28 372.062 1164.73 361.038C1152.48 350.014 1138.7 336.387 1123.39 320.157L1218.47 296.272C1226.12 307.602 1233.01 316.483 1239.14 322.913C1245.26 329.344 1251.23 333.937 1257.05 336.693C1263.18 339.449 1269.61 340.827 1276.34 340.827C1294.11 340.827 1310.34 333.325 1325.03 318.32L1364.54 365.172C1342.18 392.12 1312.17 405.594 1274.51 405.594ZM1169.32 259.066C1181.57 259.066 1192.9 256.922 1203.31 252.635C1214.03 248.348 1223.21 242.223 1230.87 234.261C1238.83 225.993 1244.96 216.194 1249.24 204.864C1253.84 193.534 1256.13 180.978 1256.13 167.198C1256.13 153.112 1253.84 140.557 1249.24 129.533C1244.96 118.203 1238.83 108.556 1230.87 100.595C1223.21 92.3266 1214.03 86.049 1203.31 81.7618C1192.9 77.4747 1181.57 75.3311 1169.32 75.3311C1157.07 75.3311 1145.59 77.4747 1134.87 81.7618C1124.46 86.049 1115.27 92.3266 1107.31 100.595C1099.65 108.556 1093.53 118.203 1088.94 129.533C1084.65 140.557 1082.5 153.112 1082.5 167.198C1082.5 180.978 1084.65 193.534 1088.94 204.864C1093.53 216.194 1099.65 225.993 1107.31 234.261C1115.27 242.223 1124.46 248.348 1134.87 252.635C1145.59 256.922 1157.07 259.066 1169.32 259.066Z" fill="#02549D"/>
<path d="M1539.41 334.397C1491.94 334.397 1454.89 321.382 1428.25 295.353C1401.61 269.324 1388.29 232.424 1388.29 184.653V6.43071H1479.23V181.897C1479.23 209.457 1484.59 229.209 1495.31 241.151C1506.34 253.094 1521.34 259.066 1540.33 259.066C1559.31 259.066 1574.16 253.094 1584.88 241.151C1595.6 229.209 1600.96 209.457 1600.96 181.897V6.43071H1690.53V184.653C1690.53 232.424 1677.21 269.324 1650.57 295.353C1623.93 321.382 1586.87 334.397 1539.41 334.397Z" fill="#02549D"/>
<path d="M1702.24 327.966L1844.17 6.43071H1933.74L2076.14 327.966H1981.51L1870.35 50.9863H1906.18L1795.02 327.966H1702.24ZM1779.86 265.496L1803.29 198.433H1960.38L1983.81 265.496H1779.86Z" fill="#02549D"/>
<path d="M802.021 581.813L891.252 372.228H981.282L843.481 693.763H753.911L616.569 372.228H714.867L802.021 581.813ZM1104.83 693.763H1013.88V372.228H1104.83V693.763ZM1183.32 424.075C1207.95 440.777 1242.32 447.75 1274.27 448.013V693.763H1183.32V424.075ZM1569.56 543.579V372.228H1658.67V693.763H1583.8L1441.86 522.41V693.763H1352.75V429.871C1375.96 417.02 1397.09 397.433 1414.21 372.228H1427.62L1569.56 543.579ZM2071.92 693.763H1977.29L1952.22 631.293H1815.88L1790.8 693.763H1698.02L1839.95 372.228H1929.52L2071.92 693.763ZM1842.79 564.23H1925.31L1884.05 461.42L1842.79 564.23Z" fill="#041F6C"/>
<path d="M121.042 348.309C40.3472 357.979 6.72454 428.046 0 462.966L112.972 573.947H330.847L581 459.966C576.965 435.791 536.882 392.083 492.5 375.966C448.118 359.849 409.771 356.703 323.5 388.966C236.253 421.593 221.91 336.221 121.042 348.309Z" fill="#83CFF3"/>
<path d="M439.785 392.856C497.032 392.857 541.862 414.221 580.995 459.988C580.998 460.474 581 460.96 581 461.446C581 621.885 450.939 751.946 290.5 751.946C130.48 751.946 0.682023 622.564 0.00488281 462.703C41.8433 497.63 91.7546 526.002 141.215 526.002C262.257 526.002 338.917 392.856 439.785 392.856Z" fill="#02559B"/>
<path d="M389 187.514C389 245.22 344.9 292 290.5 292C236.1 292 192 245.22 192 187.514C192 129.807 290.5 0 290.5 0C290.5 0 389 129.807 389 187.514Z" fill="#02559B"/>
</svg>
